<svg width="208" height="87" viewBox="0 0 208 87" fill="none" xmlns="http://www.w3.org/2000/svg">
    <rect x="84.6434" y="19.1488" width="114.338" height="56.059" fill="#E800D2"/>
    <path d="M20.6381 18.9599L41.0975 19.0776L20.733 39.4195L20.6381 18.9599Z" fill="#0E033B"/>
    <rect x="84.6434" y="17.4838" width="112.951" height="56.059" fill="#0E033B"/>
    <path d="M19.2504 17.2948L39.7098 17.4125L19.3453 37.7544L19.2504 17.2948Z" fill="#0E033B"/>
    <rect x="84.6434" y="14.9861" width="111.563" height="56.059" fill="#E800D2"/>
    <rect x="85.0001" y="14" width="111.563" height="56.059" fill="#E800D2"/>

    <path d="M196.345 51.7574V56.614L179.555 71.1838H174.421L196.345 51.7574Z" fill="#0E033B"/>
    <path d="M196.068 59.6667V70.7675H183.579L196.068 59.6667Z" fill="#0E033B"/>
    <path d="M180.665 70.2126L183.857 70.4902L180.388 73.5429H176.78L180.665 70.2126Z" fill="#E800D2"/>
    <path d="M197.594 55.2266V58.2793L195.79 59.9444V57.0956L197.594 55.2266Z" fill="#E800D2"/>


    <rect x="123.356" y="67.1598" width="114.338" height="56.059" transform="rotate(180 123.356 67.1598)" fill="#E800D2"/>

    <rect x="123.356" y="71.3226" width="111.563" height="56.059" transform="rotate(180 123.356 71.3226)" fill="#E800D2"/>
    <rect x="123.356" y="71.3226" width="111.563" height="56.059" transform="rotate(180 123.356 71.3226)" fill="#E800D2"/>
    <path d="M27.3346 16.0961L24.1431 15.8185L27.6121 12.7658H31.2198L27.3346 16.0961Z" fill="#E800D2"/>
    <path d="M10.4058 31.0822V28.0294L12.2097 26.3643V29.2131L10.4058 31.0822Z" fill="#E800D2"/>
    <path d="M9.01819 11.1007L29.4161 11.1009L9.01823 29.1395L9.01819 11.1007Z" fill="#0E033B"/>
    <path d="M8.20817 31.4971L8.04239 28.4779L18.4548 18.8212L21.7908 18.6381L8.20817 31.4971Z" fill="#0E033B"/>
    <path d="M9.85071 35.5225L9.85071 31.4985L22.9843 19.3057L27.0569 19.3286L9.85071 35.5225Z" fill="#0E033B"/>
    <rect x="11.5157" y="67.7148" width="1.66512" height="33.3024" transform="rotate(180 11.5157 67.7148)" fill="#0E033B"/>
    <rect x="11.2385" y="71.3226" width="7.21551" height="19.7039" transform="rotate(180 11.2385 71.3226)" fill="#0E033B"/>
</svg>
